<svg width="66" height="67" viewBox="0 0 66 67" fill="none" xmlns="http://www.w3.org/2000/svg">
<path d="M65.7189 33.1389C65.7189 51.3245 51.0073 66.0668 32.8595 66.0668C14.7117 66.0668 0 51.3245 0 33.1389C0 14.9533 14.7117 0.210938 32.8595 0.210938C51.0073 0.210938 65.7189 14.9533 65.7189 33.1389Z" fill="white"/>
<path fill-rule="evenodd" clip-rule="evenodd" d="M32.8592 50.5383C42.4482 50.5383 50.2217 42.7486 50.2217 33.1396C50.2217 23.5306 42.4482 15.741 32.8592 15.741C23.2702 15.741 15.4967 23.5306 15.4967 33.1396C15.4967 42.7486 23.2702 50.5383 32.8592 50.5383ZM32.8592 56.6425C45.8125 56.6425 56.3132 46.1199 56.3132 33.1396C56.3132 20.1593 45.8125 9.63672 32.8592 9.63672C19.9059 9.63672 9.40515 20.1593 9.40515 33.1396C9.40515 46.1199 19.9059 56.6425 32.8592 56.6425Z" fill="#1C1C1C"/>
<path d="M8.75129 34.6925L6.25061 29.6797H36.1337V59.5057L30.7572 57.25V34.6925H8.75129Z" fill="#1C1C1C"/>
<path fill-rule="evenodd" clip-rule="evenodd" d="M21.1919 36.6577H6.42896V34.6621H21.1919V36.6577Z" fill="white"/>
<path fill-rule="evenodd" clip-rule="evenodd" d="M21.0136 29.6792H6.25061V27.6836H21.0136V29.6792Z" fill="white"/>
<path fill-rule="evenodd" clip-rule="evenodd" d="M36.1332 59.5054L36.1332 49.1855L38.1246 49.1855L38.1246 59.5054L36.1332 59.5054Z" fill="white"/>
<path fill-rule="evenodd" clip-rule="evenodd" d="M28.752 58.312L28.752 47.9922L30.7435 47.9922L30.7435 58.312L28.752 58.312Z" fill="white"/>
</svg>
