<svg width="574" height="670" viewBox="0 0 574 670" fill="none" xmlns="http://www.w3.org/2000/svg">
<g clip-path="url(#clip0_797_4701)">
<path d="M555.448 246.944H18.0605C13.2723 246.939 8.68169 245.033 5.29589 241.644C1.91009 238.256 0.00552888 233.662 0 228.87V18.0739C0.00552888 13.2821 1.91009 8.68814 5.29589 5.29982C8.68169 1.91151 13.2723 0.00553299 18.0605 0H555.448C560.236 0.00553299 564.827 1.91151 568.212 5.29982C571.598 8.68814 573.503 13.2821 573.508 18.0739V228.87C573.503 233.662 571.598 238.256 568.212 241.644C564.827 245.033 560.236 246.939 555.448 246.944Z" fill="#D1F3FB"/>
<path d="M430.117 235.417H103.362C79.0131 235.389 55.669 225.697 38.4514 208.467C21.2338 191.236 11.549 167.875 11.5215 143.507V103.446C11.5489 79.0784 21.2338 55.7169 38.4513 38.4864C55.6689 21.256 79.0131 11.5638 103.362 11.5361H470.149C494.498 11.5638 517.842 21.256 535.06 38.4864C552.278 55.7169 561.962 79.0784 561.99 103.446C561.95 138.435 548.044 171.979 523.321 196.72C498.599 221.46 465.08 235.377 430.117 235.417Z" fill="white"/>
<path d="M345.827 71.8801H129.838C128.603 71.8801 127.418 71.389 126.545 70.5149C125.671 69.6407 125.181 68.4551 125.181 67.2189C125.181 65.9826 125.671 64.797 126.545 63.9229C127.418 63.0487 128.603 62.5576 129.838 62.5576H345.827C347.063 62.5576 348.247 63.0487 349.121 63.9229C349.994 64.797 350.485 65.9826 350.485 67.2189C350.485 68.4551 349.994 69.6407 349.121 70.5149C348.247 71.389 347.063 71.8801 345.827 71.8801Z" fill="#D1F3FB"/>
<path d="M455.164 121.614H129.838C128.603 121.614 127.418 121.122 126.545 120.248C125.671 119.374 125.181 118.189 125.181 116.952C125.181 115.716 125.671 114.53 126.545 113.656C127.418 112.782 128.603 112.291 129.838 112.291H455.164C456.4 112.291 457.585 112.782 458.458 113.656C459.332 114.53 459.822 115.716 459.822 116.952C459.822 118.189 459.332 119.374 458.458 120.248C457.585 121.122 456.4 121.614 455.164 121.614Z" fill="#D1F3FB"/>
<path d="M455.164 171.346H129.838C128.603 171.346 127.418 170.855 126.545 169.981C125.671 169.107 125.181 167.921 125.181 166.685C125.181 165.448 125.671 164.263 126.545 163.389C127.418 162.515 128.603 162.023 129.838 162.023H455.164C456.4 162.023 457.585 162.515 458.458 163.389C459.332 164.263 459.822 165.448 459.822 166.685C459.822 167.921 459.332 169.107 458.458 169.981C457.585 170.855 456.4 171.346 455.164 171.346Z" fill="#E6E6E6"/>
<path d="M455.164 171.346H129.838C128.603 171.346 127.418 170.855 126.545 169.981C125.671 169.107 125.181 167.921 125.181 166.685C125.181 165.448 125.671 164.263 126.545 163.389C127.418 162.515 128.603 162.023 129.838 162.023H455.164C456.4 162.023 457.585 162.515 458.458 163.389C459.332 164.263 459.822 165.448 459.822 166.685C459.822 167.921 459.332 169.107 458.458 169.981C457.585 170.855 456.4 171.346 455.164 171.346Z" fill="#D1F3FB"/>
<path d="M323.035 127.321C323.087 128.725 323.446 130.1 324.086 131.351C324.727 132.601 325.633 133.696 326.742 134.557C327.851 135.419 329.136 136.027 330.505 136.338C331.874 136.649 333.294 136.657 334.666 136.359L352.43 165.521L359.989 149.467L341.962 124.235C341.31 121.962 339.847 120.006 337.85 118.74C335.854 117.474 333.462 116.985 331.129 117.365C328.796 117.745 326.684 118.969 325.192 120.804C323.7 122.639 322.933 124.957 323.035 127.321H323.035Z" fill="#FFB6B6"/>
<path d="M456.336 210.897L395.121 177.669L375.812 159.54C375.812 159.54 367.419 157.291 370.508 154.559C373.597 151.828 364.793 149.194 364.793 149.194L354.428 139.462L339.699 149.891L343.962 156.504C343.962 156.504 343.669 167.451 349.661 165.345C355.653 163.239 354.156 172.318 354.156 172.318L389.924 227.804L456.336 210.897Z" fill="#7A81DC"/>
<path d="M275.636 179.591C308.658 179.591 335.428 152.802 335.428 119.755C335.428 86.7078 308.658 59.918 275.636 59.918C242.614 59.918 215.844 86.7078 215.844 119.755C215.844 152.802 242.614 179.591 275.636 179.591Z" fill="#7D23E0"/>
<path d="M456.525 646.736H444.092L438.176 598.747H456.525V646.736Z" fill="#FFB6B6"/>
<path d="M463.087 668.293H454.171L452.579 659.869L448.504 668.293H424.857C423.723 668.293 422.62 667.93 421.707 667.258C420.794 666.586 420.119 665.639 419.782 664.556C419.445 663.473 419.462 662.311 419.832 661.239C420.201 660.166 420.904 659.24 421.836 658.596L440.72 645.545V637.028L460.582 638.215L463.087 668.293Z" fill="#2F2E41"/>
<path d="M357.091 646.736H344.658L338.742 598.747H357.091V646.736Z" fill="#FFB6B6"/>
<path d="M363.653 668.293H354.737L353.146 659.869L349.07 668.293H325.423C324.29 668.293 323.186 667.93 322.273 667.258C321.36 666.586 320.686 665.639 320.348 664.556C320.011 663.473 320.028 662.311 320.398 661.239C320.768 660.166 321.47 659.24 322.403 658.596L341.286 645.545V637.028L361.149 638.215L363.653 668.293Z" fill="#2F2E41"/>
<path d="M443.334 283.799H380.584V355.29H443.334V283.799Z" fill="#FFB6B6"/>
<path d="M382.032 319.062L371.412 331.621L353.07 370.265L306.853 480.313L297.078 503.586L304.972 544.729C304.972 544.729 306.249 573.714 306.249 578.459C306.249 588.12 314.324 593.473 314.324 593.473L320.247 624.348L377.687 621.933C377.687 621.933 375.683 587.9 363.653 579.315C351.622 570.73 346.092 525.989 346.092 525.989L339.555 506.138L403.27 430.555L403.681 456.975L403.88 469.763C403.88 469.763 394.55 552.938 405.426 569.08C416.303 585.221 405.648 583.322 405.648 583.322L406.166 616.62L474.226 617.103L459.211 521.239C459.211 521.239 451.587 515.215 455.666 509.159C459.745 503.103 451.712 495.686 451.712 495.686L455.315 420.848C455.315 420.848 451.326 407.922 456.018 406.241C460.71 404.561 456.634 393.445 456.634 393.445L457.331 378.96L443.333 334.036L382.032 319.062Z" fill="#2F2E41"/>
<path d="M444.299 283.799L451.056 263.511L455.883 256.748L457.814 237.426C457.814 185.257 446.186 193.944 446.186 193.944L439.472 175.596L408.58 174.63L388.789 193.469L372.378 199.265L365.951 232.683L377.687 268.341L380.584 287.663C375.059 297.87 375.526 293.042 380.101 300.706L434.645 315.68C453.953 322.443 453.953 305.053 450.081 300.706C446.209 296.358 444.299 283.799 444.299 283.799Z" fill="#7A81DC"/>
<path d="M420.035 168.145C435.851 168.145 448.673 155.314 448.673 139.486C448.673 123.657 435.851 110.826 420.035 110.826C404.218 110.826 391.396 123.657 391.396 139.486C391.396 155.314 404.218 168.145 420.035 168.145Z" fill="#FFB6B6"/>
<path d="M458.268 177.741C458.538 178.196 458.701 178.707 458.747 179.235C458.792 179.763 458.717 180.294 458.529 180.789C458.341 181.283 458.043 181.729 457.659 182.093C457.274 182.457 456.813 182.73 456.308 182.89C452.466 184.165 450.101 187.885 447.34 190.861C444.589 193.826 440.157 196.29 436.643 194.271C433.139 192.261 432.898 187.131 429.963 184.349C427.106 181.644 422.356 181.972 418.996 184.03L418.896 184.092C418.316 184.47 417.638 184.67 416.946 184.667C416.253 184.664 415.577 184.458 415.001 184.074C414.424 183.691 413.973 183.146 413.702 182.509C413.432 181.871 413.354 181.168 413.478 180.487C414.655 174.222 415.832 167.958 417.008 161.694C413.918 169.143 409.432 175.931 403.792 181.692C402.238 183.486 400.269 184.873 398.057 185.731C396.049 186.368 394.099 184.291 392.149 184.668C396.995 180.427 413.291 153.241 410.375 135.068C406.948 135.455 403.521 135.841 400.094 136.228C399.723 134.605 398.931 133.108 397.797 131.89C397.935 133.47 397.734 135.061 397.208 136.556C395.779 136.72 394.34 136.875 392.912 137.039C390.923 137.261 388.761 137.455 387.052 136.411C384.204 134.672 384.117 130.557 384.928 127.311C387.303 117.872 394.505 109.979 403.318 105.844C412.132 101.719 414.739 110.906 424.026 107.969C442.368 102.173 456.424 112.085 461.377 130.479C465.537 145.908 462.516 162.283 458.268 177.741Z" fill="#2F2E41"/>
<path d="M537.552 668.916H502.485L502.334 668.642C501.886 667.828 501.453 666.966 501.048 666.08C497.436 658.341 495.909 649.49 494.562 641.681L493.548 635.795C493.425 635.082 493.518 634.349 493.814 633.689C494.11 633.029 494.596 632.472 495.21 632.09C495.824 631.709 496.538 631.519 497.26 631.545C497.982 631.572 498.68 631.814 499.265 632.239C504.594 636.12 509.925 639.997 515.259 643.87C517.278 645.341 519.584 647.043 521.793 648.882C522.006 647.846 522.229 646.807 522.452 645.783C522.606 645.076 522.967 644.43 523.489 643.929C524.011 643.429 524.671 643.095 525.384 642.972C526.097 642.849 526.83 642.941 527.49 643.237C528.15 643.533 528.706 644.02 529.089 644.634L533.191 651.231C536.184 656.049 538.825 660.796 538.287 665.916C538.29 665.978 538.285 666.04 538.273 666.102C538.165 666.943 537.966 667.769 537.678 668.566L537.552 668.916Z" fill="#D1F3FB"/>
<path d="M572.748 669.675L239.521 670C239.189 669.999 238.87 669.865 238.636 669.629C238.401 669.393 238.27 669.074 238.27 668.741C238.27 668.408 238.401 668.089 238.636 667.853C238.87 667.617 239.189 667.484 239.521 667.482L572.748 667.157C573.081 667.159 573.399 667.292 573.634 667.528C573.868 667.764 574 668.083 574 668.416C574 668.749 573.868 669.068 573.634 669.304C573.399 669.54 573.081 669.674 572.748 669.675Z" fill="#2F2E41"/>
<path d="M270.201 200.291L233.547 169.314C232.294 168.253 231.513 166.738 231.375 165.101C231.238 163.464 231.754 161.839 232.812 160.583L239.558 152.589C240.618 151.335 242.132 150.553 243.768 150.415C245.404 150.277 247.027 150.794 248.282 151.853L284.936 182.83C286.189 183.891 286.97 185.406 287.108 187.043C287.246 188.68 286.729 190.304 285.671 191.56L278.925 199.555C277.865 200.809 276.351 201.59 274.715 201.728C273.079 201.866 271.456 201.349 270.201 200.291Z" fill="#3F3D56"/>
<path d="M235.47 161.227C234.9 161.904 234.622 162.78 234.696 163.662C234.771 164.544 235.192 165.36 235.867 165.932L272.52 196.909C273.197 197.479 274.072 197.758 274.953 197.683C275.834 197.609 276.65 197.188 277.222 196.512L283.968 188.518C284.538 187.841 284.816 186.965 284.742 186.083C284.667 185.201 284.247 184.385 283.571 183.813L246.918 152.836C246.241 152.266 245.367 151.987 244.485 152.062C243.604 152.136 242.788 152.557 242.216 153.233L235.47 161.227Z" fill="white"/>
<path d="M256.989 173.269C256.861 173.447 256.695 173.593 256.501 173.695C256.308 173.798 256.093 173.854 255.874 173.859L250.115 173.991C249.93 173.995 249.746 173.963 249.574 173.896C249.401 173.829 249.244 173.729 249.11 173.601C248.976 173.473 248.869 173.32 248.794 173.151C248.719 172.981 248.678 172.799 248.674 172.613C248.67 172.428 248.702 172.244 248.769 172.071C248.836 171.899 248.936 171.741 249.064 171.607C249.192 171.473 249.345 171.366 249.514 171.291C249.683 171.216 249.866 171.175 250.051 171.171L253.818 171.084L250.108 161.287C249.977 160.937 249.989 160.55 250.143 160.21C250.296 159.869 250.579 159.604 250.928 159.471C251.276 159.339 251.664 159.351 252.004 159.504C252.345 159.656 252.611 159.938 252.744 160.287L257.16 171.949C257.24 172.16 257.268 172.387 257.242 172.611C257.216 172.835 257.137 173.05 257.011 173.237L256.989 173.269Z" fill="#7A81DC"/>
<path d="M257.727 175.732C259.116 175.936 260.443 176.443 261.616 177.216C262.788 177.989 263.777 179.01 264.512 180.207C265.247 181.403 265.712 182.747 265.872 184.143C266.032 185.539 265.885 186.953 265.44 188.285L292.476 209.127L275.707 214.902L252.604 194.225C250.416 193.329 248.633 191.661 247.593 189.537C246.552 187.413 246.326 184.981 246.957 182.701C247.589 180.422 249.034 178.453 251.019 177.169C253.004 175.884 255.39 175.373 257.727 175.732L257.727 175.732Z" fill="#FFB6B6"/>
<path d="M398.483 186.037L329.262 228.629C329.262 228.629 301.353 218.295 306.807 213.511C312.262 208.727 294.898 205.492 294.898 205.492L275.716 192.578L264.585 205.523C264.585 205.523 266.613 226.551 270.064 222.91C273.515 219.269 278.673 229.215 278.673 229.215C278.673 229.215 280.197 240.321 290.021 237.526C299.844 234.731 326.203 264.026 326.203 264.026L411.394 232.23L398.483 186.037Z" fill="#7A81DC"/>
<path d="M273.533 143.757C272.73 143.757 271.939 143.57 271.221 143.211C270.504 142.852 269.879 142.33 269.398 141.688L256.72 124.771C256.313 124.228 256.017 123.609 255.848 122.951C255.68 122.293 255.642 121.608 255.738 120.936C255.835 120.264 256.062 119.617 256.408 119.032C256.754 118.447 257.211 117.937 257.754 117.529C258.851 116.706 260.23 116.353 261.587 116.547C262.259 116.643 262.905 116.871 263.489 117.217C264.073 117.563 264.584 118.021 264.991 118.564L273.285 129.63L294.588 97.6532C295.348 96.5116 296.531 95.7192 297.875 95.4501C299.219 95.181 300.616 95.4574 301.756 96.2184C302.897 96.9795 303.689 98.1629 303.958 99.5082C304.227 100.854 303.95 102.251 303.19 103.392L277.834 141.454C277.376 142.142 276.759 142.71 276.035 143.111C275.312 143.512 274.503 143.733 273.677 143.756C273.629 143.757 273.581 143.757 273.533 143.757Z" fill="white"/>
</g>
<defs>
<clipPath id="clip0_797_4701">
<rect width="574" height="670" fill="white"/>
</clipPath>
</defs>
</svg>
