<svg width="1920" height="326" viewBox="0 0 1920 326" fill="none" xmlns="http://www.w3.org/2000/svg">
<mask id="mask0_312_671" style="mask-type:alpha" maskUnits="userSpaceOnUse" x="0" y="0" width="1920" height="326">
<rect width="1920" height="326" fill="#FF6E5D"/>
</mask>
<g mask="url(#mask0_312_671)">
<rect width="1920" height="326" fill="#7A81DC"/>
<circle cx="1536.5" cy="-106.5" r="253.5" stroke="white" stroke-width="4"/>
<g filter="url(#filter0_d_312_671)">
<circle cx="-23" cy="295" r="215" fill="#7178D3"/>
</g>
<circle cx="123" cy="62" r="10" fill="#86DFF4"/>
<g filter="url(#filter1_d_312_671)">
<path d="M432 13C432 38.9574 410.957 60 385 60C359.043 60 338 38.9574 338 13C338 -12.9574 359.043 -34 385 -34C410.957 -34 432 -12.9574 432 13ZM352.518 13C352.518 30.9393 367.061 45.4819 385 45.4819C402.939 45.4819 417.482 30.9393 417.482 13C417.482 -4.93925 402.939 -19.4819 385 -19.4819C367.061 -19.4819 352.518 -4.93925 352.518 13Z" fill="#D1F3FB"/>
</g>
</g>
<defs>
<filter id="filter0_d_312_671" x="-238" y="80" width="434" height="436" filterUnits="userSpaceOnUse" color-interpolation-filters="sRGB">
<feFlood flood-opacity="0" result="BackgroundImageFix"/>
<feColorMatrix in="SourceAlpha" type="matrix" values="0 0 0 0 0 0 0 0 0 0 0 0 0 0 0 0 0 0 127 0" result="hardAlpha"/>
<feOffset dx="4" dy="6"/>
<feComposite in2="hardAlpha" operator="out"/>
<feColorMatrix type="matrix" values="0 0 0 0 0 0 0 0 0 0 0 0 0 0 0 0 0 0 0.2 0"/>
<feBlend mode="normal" in2="BackgroundImageFix" result="effect1_dropShadow_312_671"/>
<feBlend mode="normal" in="SourceGraphic" in2="effect1_dropShadow_312_671" result="shape"/>
</filter>
<filter id="filter1_d_312_671" x="338" y="-34" width="98" height="100" filterUnits="userSpaceOnUse" color-interpolation-filters="sRGB">
<feFlood flood-opacity="0" result="BackgroundImageFix"/>
<feColorMatrix in="SourceAlpha" type="matrix" values="0 0 0 0 0 0 0 0 0 0 0 0 0 0 0 0 0 0 127 0" result="hardAlpha"/>
<feOffset dx="4" dy="6"/>
<feComposite in2="hardAlpha" operator="out"/>
<feColorMatrix type="matrix" values="0 0 0 0 0 0 0 0 0 0 0 0 0 0 0 0 0 0 0.2 0"/>
<feBlend mode="normal" in2="BackgroundImageFix" result="effect1_dropShadow_312_671"/>
<feBlend mode="normal" in="SourceGraphic" in2="effect1_dropShadow_312_671" result="shape"/>
</filter>
</defs>
</svg>
